<svg width="58" height="58" viewBox="0 0 58 58" fill="none" xmlns="http://www.w3.org/2000/svg">
<path d="M15.1378 16.9324C15.1664 16.907 15.1935 16.8801 15.2191 16.8516L26.0232 4.81388C27.6126 3.04292 30.3874 3.04292 31.9769 4.81389L42.7809 16.8516C42.8065 16.8801 42.8336 16.907 42.8622 16.9324L53.1378 26.0305C54.9275 27.6152 54.9369 30.4055 53.1579 32.0022L41.1484 42.7809C41.1199 42.8065 41.093 42.8336 41.0676 42.8622L31.9948 53.1092C30.403 54.907 27.597 54.907 26.0052 53.1092L16.9324 42.8622C16.9071 42.8336 16.8801 42.8065 16.8516 42.7809L4.84211 32.0022C3.06311 30.4055 3.07252 27.6152 4.86224 26.0305L15.1378 16.9324Z" stroke="#8C71D6" stroke-width="2" stroke-linejoin="round"/>
</svg>
