<svg width="244" height="58" viewBox="0 0 244 58" fill="none" xmlns="http://www.w3.org/2000/svg">
<path d="M15.1378 16.9324C15.1664 16.907 15.1935 16.8801 15.2191 16.8516L26.0232 4.81388C27.6126 3.04292 30.3874 3.04292 31.9769 4.81389L42.7809 16.8516C42.8065 16.8801 42.8336 16.907 42.8622 16.9324L53.1378 26.0305C54.9275 27.6152 54.9369 30.4055 53.1579 32.0022L41.1484 42.7809C41.1199 42.8065 41.093 42.8336 41.0676 42.8622L31.9948 53.1092C30.403 54.907 27.597 54.907 26.0052 53.1092L16.9324 42.8622C16.9071 42.8336 16.8801 42.8065 16.8516 42.7809L4.84211 32.0022C3.06311 30.4055 3.07252 27.6152 4.86224 26.0305L15.1378 16.9324Z" stroke="#8C71D6" stroke-width="2" stroke-linejoin="round"/>
<path d="M81.8896 20.9205C83.3573 22.3645 84.0911 24.4949 84.0911 27.3118C84.0911 30.1287 83.3573 32.2709 81.8896 33.7385C80.4457 35.1825 78.3981 35.9044 75.747 35.9044H70.8825V44H65.9471V18.7191H75.747C78.3981 18.7191 80.4457 19.4529 81.8896 20.9205ZM79.1556 27.3118C79.1556 24.5186 77.9366 23.122 75.4984 23.122H70.8825V31.4661H75.4984C76.682 31.4661 77.5815 31.1465 78.1969 30.5074C78.8361 29.8683 79.1556 28.8031 79.1556 27.3118ZM103.83 44H96.3029C93.4624 44 91.403 43.4556 90.1247 42.3667C88.8702 41.2541 88.2429 39.4551 88.2429 36.9696V18.7191H93.1783V36.9696C93.1783 37.9638 93.4032 38.6503 93.853 39.029C94.3027 39.4078 95.1194 39.5972 96.3029 39.5972H103.83V44ZM126.938 44H121.79L120.37 39.6327H111.884L110.499 44H105.35L113.446 20.8495C113.801 20.0447 114.191 19.4884 114.618 19.1807C115.067 18.873 115.612 18.7191 116.251 18.7191C116.89 18.7191 117.399 18.8612 117.778 19.1452C118.18 19.4293 118.535 19.9974 118.843 20.8495L126.938 44ZM119.233 35.4784L116.251 25.4654L113.126 35.4784H119.233ZM147.664 18.7191L140.065 33.632V44H135.165V33.632L127.567 18.7191H132.928L137.651 28.9096L142.302 18.7191H147.664ZM177.549 18.7191V35.3363C177.549 38.0822 176.614 40.2481 174.744 41.8341C172.898 43.4201 170.614 44.213 167.891 44.213C165.169 44.213 162.873 43.4201 161.003 41.8341C159.157 40.2481 158.234 38.0822 158.234 35.3363V18.7191H163.169V35.1588C163.169 36.7211 163.595 37.8928 164.447 38.674C165.323 39.4315 166.471 39.8102 167.891 39.8102C169.312 39.8102 170.46 39.4315 171.336 38.674C172.211 37.8928 172.649 36.7211 172.649 35.1588V18.7191H177.549ZM187.632 44H182.697V18.7191H187.632V44ZM200.144 29.9377H204.393C205.321 29.9377 206.106 30.0986 206.75 30.4206C207.394 30.7425 207.883 31.219 208.218 31.85C208.559 32.4745 208.73 33.2504 208.73 34.1776C208.73 34.8794 208.624 35.4976 208.411 36.032C208.205 36.5664 207.906 37.0171 207.513 37.3841C207.12 37.7447 206.647 38.0248 206.093 38.2244L205.408 38.6011H201.815L201.805 36.6308H204.335C204.793 36.6308 205.172 36.531 205.475 36.3314C205.778 36.1318 206.003 35.8549 206.151 35.5008C206.306 35.1466 206.383 34.7442 206.383 34.2935C206.383 33.8106 206.315 33.3921 206.18 33.0379C206.045 32.6774 205.832 32.4005 205.543 32.2073C205.253 32.0077 204.87 31.9079 204.393 31.9079H202.491V44H200.144V29.9377ZM206.692 44L204.017 37.6835L206.46 37.6739L209.203 43.8744V44H206.692ZM214.689 44.1932C214.013 44.1932 213.411 44.0934 212.883 43.8938C212.355 43.6877 211.907 43.3851 211.54 42.9859C211.173 42.5802 210.893 42.0845 210.7 41.4985C210.507 40.9062 210.41 40.2204 210.41 39.4413V38.4369C210.41 37.5548 210.51 36.795 210.71 36.1575C210.916 35.5137 211.199 34.9857 211.56 34.5736C211.92 34.1615 212.345 33.8557 212.835 33.6561C213.33 33.4565 213.868 33.3567 214.448 33.3567C215.104 33.3567 215.674 33.4629 216.157 33.6754C216.64 33.8879 217.036 34.2066 217.345 34.6315C217.661 35.0565 217.892 35.5813 218.04 36.2058C218.195 36.8304 218.272 37.5483 218.272 38.3596V39.4896H211.492V37.7898H216.051V37.5483C216.038 37.0718 215.98 36.663 215.877 36.3217C215.774 35.974 215.607 35.71 215.375 35.5298C215.149 35.343 214.837 35.2497 214.438 35.2497C214.148 35.2497 213.891 35.3044 213.665 35.4139C213.44 35.5233 213.253 35.7004 213.105 35.9451C212.963 36.1897 212.854 36.5181 212.777 36.9302C212.699 37.3358 212.661 37.8381 212.661 38.4369V39.4413C212.661 39.9629 212.706 40.4039 212.796 40.7645C212.893 41.1251 213.034 41.4213 213.221 41.6531C213.408 41.8784 213.633 42.0458 213.897 42.1553C214.168 42.2583 214.48 42.3098 214.834 42.3098C215.355 42.3098 215.803 42.2132 216.176 42.0201C216.556 41.8205 216.885 41.5629 217.162 41.2474L218.156 42.6285C217.97 42.8796 217.719 43.1275 217.403 43.3722C217.088 43.6105 216.704 43.8068 216.254 43.9614C215.809 44.1159 215.288 44.1932 214.689 44.1932ZM224.927 41.8752V36.6694C224.927 36.3089 224.875 36.0191 224.772 35.8002C224.676 35.5813 224.531 35.4235 224.338 35.3269C224.151 35.2239 223.916 35.1724 223.633 35.1724C223.336 35.1724 223.085 35.2336 222.879 35.3559C222.68 35.4782 222.528 35.6457 222.425 35.8581C222.322 36.0642 222.271 36.3024 222.271 36.5728H220.02C220.02 36.1543 220.104 35.7519 220.271 35.3656C220.445 34.9792 220.693 34.6348 221.015 34.3321C221.337 34.0295 221.727 33.7913 222.184 33.6174C222.641 33.4436 223.15 33.3567 223.71 33.3567C224.379 33.3567 224.975 33.4693 225.497 33.6947C226.018 33.9136 226.427 34.271 226.723 34.7668C227.026 35.2561 227.177 35.9 227.177 36.6984V41.5758C227.177 42.0587 227.206 42.4901 227.264 42.87C227.328 43.2434 227.415 43.5686 227.525 43.8455V44H225.236C225.133 43.7489 225.056 43.4269 225.004 43.0342C224.953 42.6414 224.927 42.2551 224.927 41.8752ZM225.226 37.6352L225.236 39.0936H224.154C223.832 39.0936 223.542 39.1387 223.285 39.2288C223.027 39.3126 222.808 39.4349 222.628 39.5959C222.454 39.7504 222.319 39.9403 222.222 40.1657C222.132 40.3911 222.087 40.6389 222.087 40.9094C222.087 41.2378 222.132 41.505 222.222 41.711C222.319 41.917 222.457 42.0716 222.638 42.1746C222.824 42.2712 223.05 42.3195 223.314 42.3195C223.674 42.3195 223.987 42.2422 224.251 42.0877C224.521 41.9267 224.727 41.7335 224.869 41.5082C225.017 41.2828 225.075 41.0768 225.043 40.8901L225.555 41.8269C225.503 42.0716 225.406 42.3291 225.265 42.5996C225.13 42.87 224.953 43.1275 224.734 43.3722C224.515 43.6169 224.251 43.8165 223.942 43.971C223.633 44.1191 223.275 44.1932 222.87 44.1932C222.284 44.1932 221.762 44.0708 221.305 43.8262C220.848 43.5815 220.487 43.2306 220.223 42.7734C219.966 42.3098 219.837 41.7561 219.837 41.1122C219.837 40.5907 219.924 40.1174 220.098 39.6924C220.271 39.2675 220.529 38.9037 220.87 38.6011C221.212 38.292 221.64 38.0538 222.155 37.8864C222.676 37.7189 223.285 37.6352 223.98 37.6352H225.226ZM233.194 42.3098C233.484 42.3098 233.741 42.2486 233.967 42.1263C234.199 42.004 234.382 41.814 234.517 41.5565C234.653 41.2925 234.727 40.9512 234.739 40.5327H236.855C236.842 41.2732 236.671 41.9203 236.343 42.474C236.014 43.0213 235.577 43.4463 235.029 43.7489C234.488 44.0451 233.886 44.1932 233.223 44.1932C232.534 44.1932 231.932 44.0837 231.417 43.8648C230.908 43.6394 230.487 43.3143 230.152 42.8893C229.817 42.4643 229.566 41.9492 229.398 41.344C229.238 40.7323 229.157 40.0337 229.157 39.2482V38.3017C229.157 37.5226 229.238 36.8272 229.398 36.2155C229.566 35.6038 229.817 35.0855 230.152 34.6605C230.487 34.2356 230.908 33.9136 231.417 33.6947C231.926 33.4693 232.525 33.3567 233.213 33.3567C233.948 33.3567 234.582 33.5112 235.116 33.8203C235.657 34.1229 236.079 34.5672 236.381 35.1531C236.684 35.739 236.842 36.4569 236.855 37.3069H234.739C234.727 36.8561 234.659 36.4795 234.537 36.1769C234.414 35.8678 234.24 35.636 234.015 35.4815C233.796 35.3269 233.519 35.2497 233.185 35.2497C232.818 35.2497 232.515 35.3205 232.277 35.4621C232.045 35.5974 231.865 35.797 231.736 36.061C231.613 36.3249 231.527 36.6469 231.475 37.0268C231.43 37.4002 231.407 37.8252 231.407 38.3017V39.2482C231.407 39.7375 231.43 40.1721 231.475 40.552C231.52 40.9255 231.604 41.2442 231.726 41.5082C231.855 41.7722 232.038 41.9718 232.277 42.107C232.515 42.2422 232.821 42.3098 233.194 42.3098ZM242.823 33.5498V35.2883H237.695V33.5498H242.823ZM239.095 30.9904H241.336V41.0832C241.336 41.4052 241.371 41.6498 241.442 41.8172C241.513 41.9847 241.613 42.0973 241.742 42.1553C241.87 42.2132 242.022 42.2422 242.196 42.2422C242.324 42.2422 242.45 42.2325 242.572 42.2132C242.701 42.1875 242.794 42.1649 242.852 42.1456V43.9614C242.685 44.0258 242.492 44.0805 242.273 44.1256C242.054 44.1706 241.79 44.1932 241.481 44.1932C241.024 44.1932 240.615 44.0998 240.254 43.9131C239.894 43.7199 239.61 43.4076 239.404 42.9762C239.198 42.5384 239.095 41.9589 239.095 41.2378V30.9904Z" fill="#8C71D6"/>
</svg>
